<?xml version="1.0" encoding="UTF-8"?>
<svg width="164px" height="86px" viewBox="0 0 164 86" version="1.1" xmlns="http://www.w3.org/2000/svg" xmlns:xlink="http://www.w3.org/1999/xlink">
    <!-- Generator: Sketch 45.2 (43514) - http://www.bohemiancoding.com/sketch -->
    <title>Page 1</title>
    <desc>Created with Sketch.</desc>
    <defs></defs>
    <g id="Page-1" stroke="none" stroke-width="1" fill="none" fill-rule="evenodd">
        <g>
            <polygon id="Fill-1" fill="#FEFEFE" points="23.5906 32.4483 20.5306 32.4483 20.5306 19.4583 20.4706 19.4583 17.4706 28.6373 15.9416 28.6373 12.9106 19.4583 12.8506 19.4583 12.8506 32.4483 9.7906 32.4483 9.7906 11.0883 12.7606 11.0883 16.6606 22.3983 16.7206 22.3983 20.6516 11.0883 23.5906 11.0883"></polygon>
            <polygon id="Fill-2" fill="#FEFEFE" points="75.6795 11.0879 78.7395 11.0879 78.7395 20.8379 78.7995 20.8379 83.2695 11.0879 86.3285 11.0879 82.1585 19.6379 87.1095 32.4479 83.8685 32.4479 80.3895 22.9679 78.7395 26.0589 78.7395 32.4479 75.6795 32.4479"></polygon>
            <polygon id="Fill-3" fill="#FEFEFE" points="109.4129 11.0879 118.5329 11.0879 118.5329 13.9679 112.4729 13.9679 112.4729 20.2379 117.7529 20.2379 117.7529 23.1179 112.4729 23.1179 112.4729 29.3889 118.5329 29.3889 118.5329 32.4479 109.4129 32.4479"></polygon>
            <polygon id="Fill-4" fill="#BE5A5A" points="141.286 23.2981 150.316 23.2981 150.316 20.2381 141.286 20.2381"></polygon>
            <polygon id="Fill-5" fill="#FEFEFE" points="47.504 32.4481 50.565 32.4481 50.565 11.0881 47.504 11.0881"></polygon>
            <g id="Group-28" transform="translate(0.000000, 0.431100)">
                <path d="M32.8816,84.4996 L32.8816,0.1006" id="Stroke-6" stroke="#FEFEFE"></path>
                <path d="M65.2224,84.4996 L65.2224,0.1786" id="Stroke-8" stroke="#FEFEFE"></path>
                <path d="M97.6072,84.4996 L97.6072,0.0686" id="Stroke-10" stroke="#FEFEFE"></path>
                <path d="M130.0193,84.3873 L130.0193,0.0693" id="Stroke-12" stroke="#FEFEFE"></path>
                <path d="M162.1043,42.2916 L0.9733,42.2916" id="Stroke-14" stroke="#FEFEFE"></path>
                <path d="M14.2302,62.3638 L15.9702,62.3638 C16.5102,62.3638 16.9402,62.2888 17.2602,62.1388 C17.5802,61.9888 17.8252,61.7738 17.9952,61.4938 C18.1652,61.2148 18.2802,60.8688 18.3402,60.4588 C18.4002,60.0498 18.4302,59.5738 18.4302,59.0338 C18.4302,58.4938 18.4002,58.0188 18.3402,57.6088 C18.2802,57.1988 18.1552,56.8488 17.9652,56.5588 C17.7752,56.2688 17.5102,56.0538 17.1702,55.9138 C16.8302,55.7738 16.3792,55.7038 15.8202,55.7038 L14.2302,55.7038 L14.2302,62.3638 Z M11.1702,52.8238 L16.0902,52.8238 C19.6902,52.8238 21.4902,54.9138 21.4902,59.0938 C21.4902,60.3348 21.2952,61.3988 20.9052,62.2888 C20.5152,63.1788 19.8302,63.8938 18.8502,64.4338 L22.1502,74.1838 L18.9102,74.1838 L16.0602,65.0638 L14.2302,65.0638 L14.2302,74.1838 L11.1702,74.1838 L11.1702,52.8238 Z" id="Fill-16" fill="#FEFEFE"></path>
                <path d="M76.2644,57.8638 C76.2644,57.0048 76.4144,56.2438 76.7144,55.5838 C77.0144,54.9248 77.4094,54.3798 77.8994,53.9488 C78.3894,53.5188 78.9394,53.1938 79.5494,52.9738 C80.1604,52.7548 80.7744,52.6438 81.3944,52.6438 C82.0144,52.6438 82.6294,52.7548 83.2404,52.9738 C83.8494,53.1938 84.3994,53.5188 84.8894,53.9488 C85.3794,54.3798 85.7744,54.9248 86.0754,55.5838 C86.3744,56.2438 86.5244,57.0048 86.5244,57.8638 L86.5244,58.9438 L83.4644,58.9438 L83.4644,57.8638 C83.4644,57.1248 83.2594,56.5788 82.8494,56.2288 C82.4394,55.8798 81.9534,55.7038 81.3944,55.7038 C80.8344,55.7038 80.3494,55.8798 79.9394,56.2288 C79.5294,56.5788 79.3254,57.1248 79.3254,57.8638 L79.3254,69.1438 C79.3254,69.8848 79.5294,70.4288 79.9394,70.7788 C80.3494,71.1298 80.8344,71.3038 81.3944,71.3038 C81.9534,71.3038 82.4394,71.1298 82.8494,70.7788 C83.2594,70.4288 83.4644,69.8848 83.4644,69.1438 L83.4644,65.1238 L81.0354,65.1238 L81.0354,62.4248 L86.5244,62.4248 L86.5244,69.1438 C86.5244,70.0238 86.3744,70.7898 86.0754,71.4388 C85.7744,72.0898 85.3794,72.6298 84.8894,73.0588 C84.3994,73.4898 83.8494,73.8138 83.2404,74.0338 C82.6294,74.2548 82.0144,74.3638 81.3944,74.3638 C80.7744,74.3638 80.1604,74.2548 79.5494,74.0338 C78.9394,73.8138 78.3894,73.4898 77.8994,73.0588 C77.4094,72.6298 77.0144,72.0898 76.7144,71.4388 C76.4144,70.7898 76.2644,70.0238 76.2644,69.1438 L76.2644,57.8638 Z" id="Fill-18" fill="#FEFEFE"></path>
                <polygon id="Fill-20" fill="#FEFEFE" points="140.8513 52.8238 143.7903 52.8238 148.4113 65.6938 148.4713 65.6938 148.4713 52.8238 151.5313 52.8238 151.5313 74.1838 148.6513 74.1838 143.9713 61.3448 143.9113 61.3448 143.9113 74.1838 140.8513 74.1838"></polygon>
                <path d="M47.5203,66.7134 L50.5813,66.7134 L49.0813,58.9744 L49.0203,58.9744 L47.5203,66.7134 Z M55.0813,74.1844 L52.0203,74.1844 L51.1213,69.5944 L46.9503,69.5944 L46.0503,74.1844 L42.9903,74.1844 L47.7603,52.8234 L50.3103,52.8234 L55.0813,74.1844 Z" id="Fill-22" fill="#FEFEFE"></path>
                <path d="M112.4578,66.7144 L115.5188,66.7144 L114.0188,58.9744 L113.9578,58.9744 L112.4578,66.7144 Z M120.0188,74.1844 L116.9578,74.1844 L116.0588,69.5944 L111.8878,69.5944 L110.9878,74.1844 L107.9278,74.1844 L112.6978,52.8234 L115.2478,52.8234 L120.0188,74.1844 Z" id="Fill-24" fill="#FEFEFE"></path>
                <polyline id="Stroke-26" stroke="#FEFEFE" points="0.0144 0.0689 162.6044 0.0689 162.6044 84.4999 0.4994 84.4999 0.4994 0.0689"></polyline>
            </g>
        </g>
    </g>
</svg>