<?xml version="1.0" encoding="UTF-8"?>
<svg width="50px" height="49px" viewBox="0 0 50 49" version="1.1" xmlns="http://www.w3.org/2000/svg" xmlns:xlink="http://www.w3.org/1999/xlink">
    <!-- Generator: Sketch 45.2 (43514) - http://www.bohemiancoding.com/sketch -->
    <title>instagram</title>
    <desc>Created with Sketch.</desc>
    <defs></defs>
    <g id="Page-1" stroke="none" stroke-width="1" fill="none" fill-rule="evenodd">
        <g id="Desktop-HD" transform="translate(-1271.000000, -919.000000)" fill-rule="nonzero">
            <g id="1498844467_email_mail_envelope_send_message" transform="translate(1135.000000, 918.000000)">
                <g id="instagram" transform="translate(136.000000, 0.000000)">
                    <g id="Group">
                        <path d="M25,49.4242424 C11.5390625,49.4242424 0.5859375,38.8030303 0.5859375,25.75 C0.5859375,12.6969697 11.5390625,2.07575758 25,2.07575758 C38.4609375,2.07575758 49.4140625,12.6969697 49.4140625,25.75 C49.4140625,38.8030303 38.4609375,49.4242424 25,49.4242424 Z" id="Shape" fill="#FFFFFF"></path>
                        <path d="M25,2.64393939 C38.1390625,2.64393939 48.828125,13.0090909 48.828125,25.75 C48.828125,38.4909091 38.1390625,48.8560606 25,48.8560606 C11.8609375,48.8560606 1.171875,38.4909091 1.171875,25.75 C1.171875,13.0090909 11.8609375,2.64393939 25,2.64393939 L25,2.64393939 Z M25,1.50757576 C11.1921875,1.50757576 0,12.3606061 0,25.75 C0,39.1378788 11.1921875,49.9924242 25,49.9924242 C38.8078125,49.9924242 50,39.1378788 50,25.75 C50,12.3606061 38.8078125,1.50757576 25,1.50757576 L25,1.50757576 Z" id="Shape" fill="#C05A5A"></path>
                    </g>
                    <path d="M34.4640625,13.5212121 L15.5359375,13.5212121 C13.7546875,13.5212121 12.38125,14.8530303 12.38125,16.580303 L12.38125,34.9333333 C12.38125,36.6606061 13.7546875,37.9924242 15.5359375,37.9924242 L34.4625,37.9924242 C36.24375,37.9924242 37.6171875,36.6606061 37.6171875,34.9333333 L37.6171875,16.580303 C37.61875,14.8530303 36.24375,13.5212121 34.4640625,13.5212121 Z M25.01875,20.95 C27.8171875,20.95 30.0859375,23.0818182 30.0859375,25.7106061 C30.0859375,28.3393939 27.8171875,30.4712121 25.01875,30.4712121 C22.221875,30.4712121 19.953125,28.3378788 19.953125,25.7106061 C19.953125,23.0818182 22.221875,20.95 25.01875,20.95 Z M34.4640625,34.169697 C34.4640625,34.7060606 34.228125,34.9348485 33.675,34.9348485 L16.325,34.9348485 C15.7734375,34.9348485 15.5359375,34.7060606 15.5359375,34.169697 L15.5359375,23.4636364 L17.5015625,23.8787879 C17.290625,24.5439394 17.1765625,25.2469697 17.1765625,25.9772727 C17.1765625,30.0439394 20.6890625,33.3454545 25.0171875,33.3454545 C29.3484375,33.3454545 32.859375,30.0454545 32.859375,25.9772727 C32.859375,25.2469697 32.7453125,24.5439394 32.534375,23.8787879 L34.4625,23.4636364 L34.4625,34.169697 L34.4640625,34.169697 Z M34.4640625,20.4045455 C34.4640625,20.8272727 34.1109375,21.169697 33.675,21.169697 L30.5203125,21.169697 C30.084375,21.169697 29.73125,20.8272727 29.73125,20.4045455 L29.73125,17.3454545 C29.73125,16.9227273 30.084375,16.580303 30.5203125,16.580303 L33.675,16.580303 C34.1109375,16.580303 34.4640625,16.9227273 34.4640625,17.3454545 L34.4640625,20.4045455 Z" id="Shape" fill="#333333"></path>
                </g>
            </g>
        </g>
    </g>
</svg>