<?xml version="1.0" encoding="UTF-8"?>
<svg width="49px" height="49px" viewBox="0 0 49 49" version="1.1" xmlns="http://www.w3.org/2000/svg" xmlns:xlink="http://www.w3.org/1999/xlink">
    <!-- Generator: Sketch 45.2 (43514) - http://www.bohemiancoding.com/sketch -->
    <title>1498844459_online_social_media_linked_in</title>
    <desc>Created with Sketch.</desc>
    <defs></defs>
    <g id="Page-1" stroke="none" stroke-width="1" fill="none" fill-rule="evenodd">
        <g id="Desktop-HD" transform="translate(-1203.000000, -919.000000)" fill-rule="nonzero">
            <g id="1498844459_online_social_media_linked_in" transform="translate(1203.000000, 919.000000)">
                <g id="Group">
                    <path d="M24.25,48.4151515 C11.1969697,48.4151515 0.575757576,37.7939394 0.575757576,24.7409091 C0.575757576,11.6878788 11.1969697,1.06666667 24.25,1.06666667 C37.3030303,1.06666667 47.9242424,11.6878788 47.9242424,24.7409091 C47.9242424,37.7939394 37.3030303,48.4151515 24.25,48.4151515 Z" id="Shape" fill="#FFFFFF"></path>
                    <path d="M24.25,1.63484848 C36.9909091,1.63484848 47.3560606,12 47.3560606,24.7409091 C47.3560606,37.4818182 36.9909091,47.8469697 24.25,47.8469697 C11.5090909,47.8469697 1.14393939,37.4818182 1.14393939,24.7409091 C1.14393939,12 11.5090909,1.63484848 24.25,1.63484848 L24.25,1.63484848 Z M24.25,0.498484848 C10.8606061,0.498484848 0.00757575758,11.3515152 0.00757575758,24.7409091 C0.00757575758,38.1287879 10.8606061,48.9833333 24.25,48.9833333 C37.6393939,48.9833333 48.4924242,38.1287879 48.4924242,24.7409091 C48.4924242,11.3530303 37.6393939,0.498484848 24.25,0.498484848 L24.25,0.498484848 Z" id="Shape" fill="#C05A5A"></path>
                </g>
                <path d="M36.8166667,35.2606061 L36.8166667,25.9621212 C36.8166667,20.980303 34.1575758,18.6621212 30.6106061,18.6621212 C27.7484848,18.6621212 26.4666667,20.2363636 25.7530303,21.3409091 L25.7530303,19.0424242 L20.3621212,19.0424242 C20.4333333,20.5651515 20.3621212,35.2606061 20.3621212,35.2606061 L25.7530303,35.2606061 L25.7530303,26.2030303 C25.7530303,25.719697 25.7878788,25.2348485 25.930303,24.8893939 C26.319697,23.9212121 27.2060606,22.9181818 28.6954545,22.9181818 C30.6469697,22.9181818 31.4272727,24.4045455 31.4272727,26.5848485 L31.4272727,35.2621212 L36.8166667,35.2606061 L36.8166667,35.2606061 Z M14.6818182,16.8287879 C16.5606061,16.8287879 17.7318182,15.5818182 17.7318182,14.0257576 C17.6969697,12.4348485 16.5606061,11.2242424 14.7166667,11.2242424 C12.8727273,11.2242424 11.6681818,12.4333333 11.6681818,14.0242424 C11.6681818,15.5818182 12.8378788,16.8272727 14.6484848,16.8272727 L14.6818182,16.8272727 L14.6818182,16.8287879 Z M17.3772727,35.2606061 L17.3772727,19.0424242 L11.9878788,19.0424242 L11.9878788,35.2606061 L17.3772727,35.2606061 L17.3772727,35.2606061 Z" id="Shape" fill="#333333"></path>
            </g>
        </g>
    </g>
</svg>