<?xml version="1.0" encoding="UTF-8"?>
<svg width="86px" height="165px" viewBox="0 0 86 165" version="1.1" xmlns="http://www.w3.org/2000/svg" xmlns:xlink="http://www.w3.org/1999/xlink">
    <!-- Generator: Sketch 45.2 (43514) - http://www.bohemiancoding.com/sketch -->
    <title>Page 1</title>
    <desc>Created with Sketch.</desc>
    <defs></defs>
    <g id="Page-1" stroke="none" stroke-width="1" fill="none" fill-rule="evenodd">
        <g>
            <polygon id="Fill-1" fill="#FEFEFE" points="14.868 7.0105 17.808 7.0105 21.738 18.3215 21.798 18.3215 25.698 7.0105 28.668 7.0105 28.668 28.3705 25.608 28.3705 25.608 15.3805 25.548 15.3805 22.518 24.5605 20.988 24.5605 17.988 15.3805 17.928 15.3805 17.928 28.3705 14.868 28.3705"></polygon>
            <polygon id="Fill-2" fill="#FEFEFE" points="16.0531 71.7146 19.1131 71.7146 19.1131 81.4646 19.1731 81.4646 23.6431 71.7146 26.7031 71.7146 22.5331 80.2636 27.4831 93.0736 24.2431 93.0736 20.7631 83.5936 19.1131 86.6856 19.1131 93.0736 16.0531 93.0736"></polygon>
            <polygon id="Fill-3" fill="#FEFEFE" points="17.2079 104.2927 26.3279 104.2927 26.3279 107.1717 20.2679 107.1717 20.2679 113.4427 25.5479 113.4427 25.5479 116.3217 20.2679 116.3217 20.2679 122.5937 26.3279 122.5937 26.3279 125.6517 17.2079 125.6517"></polygon>
            <polygon id="Fill-4" fill="#BE5A5A" points="17.253 148.331 26.283 148.331 26.283 145.271 17.253 145.271"></polygon>
            <polygon id="Fill-5" fill="#FEFEFE" points="20.238 60.714 23.298 60.714 23.298 39.355 20.238 39.355"></polygon>
            <g id="Group-28" transform="translate(0.000000, 0.104000)">
                <path d="M84.931,33.7776 L0.532,33.7776" id="Stroke-6" stroke="#FEFEFE"></path>
                <path d="M84.931,66.1184 L0.609,66.1184" id="Stroke-8" stroke="#FEFEFE"></path>
                <path d="M84.931,98.5032 L0.5,98.5032" id="Stroke-10" stroke="#FEFEFE"></path>
                <path d="M84.8187,130.9143 L0.4997,130.9143" id="Stroke-12" stroke="#FEFEFE"></path>
                <path d="M42.722,163.0003 L42.722,1.8683" id="Stroke-14" stroke="#FEFEFE"></path>
                <path d="M61.5047,16.4153 L63.2447,16.4153 C63.7847,16.4153 64.2147,16.3413 64.5347,16.1903 C64.8547,16.0403 65.0997,15.8253 65.2697,15.5463 C65.4397,15.2673 65.5547,14.9213 65.6147,14.5113 C65.6747,14.1013 65.7047,13.6263 65.7047,13.0853 C65.7047,12.5463 65.6747,12.0713 65.6147,11.6613 C65.5547,11.2513 65.4297,10.9013 65.2397,10.6103 C65.0497,10.3213 64.7847,10.1063 64.4447,9.9663 C64.1047,9.8253 63.6537,9.7553 63.0947,9.7553 L61.5047,9.7553 L61.5047,16.4153 Z M58.4447,6.8763 L63.3647,6.8763 C66.9647,6.8763 68.7647,8.9663 68.7647,13.1453 C68.7647,14.3863 68.5697,15.4503 68.1797,16.3413 C67.7897,17.2313 67.1047,17.9463 66.1247,18.4853 L69.4247,28.2353 L66.1847,28.2353 L63.3347,19.1163 L61.5047,19.1163 L61.5047,28.2353 L58.4447,28.2353 L58.4447,6.8763 Z" id="Fill-16" fill="#FEFEFE"></path>
                <path d="M58.805,76.6497 C58.805,75.7907 58.955,75.0307 59.255,74.3707 C59.555,73.7107 59.95,73.1657 60.44,72.7357 C60.93,72.3057 61.48,71.9797 62.09,71.7607 C62.701,71.5407 63.315,71.4307 63.935,71.4307 C64.555,71.4307 65.17,71.5407 65.781,71.7607 C66.39,71.9797 66.94,72.3057 67.43,72.7357 C67.92,73.1657 68.315,73.7107 68.616,74.3707 C68.915,75.0307 69.065,75.7907 69.065,76.6497 L69.065,77.7297 L66.005,77.7297 L66.005,76.6497 C66.005,75.9117 65.8,75.3647 65.39,75.0147 C64.98,74.6657 64.494,74.4897 63.935,74.4897 C63.375,74.4897 62.89,74.6657 62.48,75.0147 C62.07,75.3647 61.866,75.9117 61.866,76.6497 L61.866,87.9307 C61.866,88.6707 62.07,89.2157 62.48,89.5657 C62.89,89.9157 63.375,90.0907 63.935,90.0907 C64.494,90.0907 64.98,89.9157 65.39,89.5657 C65.8,89.2157 66.005,88.6707 66.005,87.9307 L66.005,83.9097 L63.576,83.9097 L63.576,81.2107 L69.065,81.2107 L69.065,87.9307 C69.065,88.8097 68.915,89.5757 68.616,90.2257 C68.315,90.8767 67.92,91.4157 67.43,91.8447 C66.94,92.2767 66.39,92.6007 65.781,92.8197 C65.17,93.0407 64.555,93.1497 63.935,93.1497 C63.315,93.1497 62.701,93.0407 62.09,92.8197 C61.48,92.6007 60.93,92.2767 60.44,91.8447 C59.95,91.4157 59.555,90.8767 59.255,90.2257 C58.955,89.5757 58.805,88.8097 58.805,87.9307 L58.805,76.6497 Z" id="Fill-18" fill="#FEFEFE"></path>
                <polygon id="Fill-20" fill="#FEFEFE" points="58.5951 136.4065 61.5341 136.4065 66.1551 149.2765 66.2151 149.2765 66.2151 136.4065 69.2751 136.4065 69.2751 157.7665 66.3951 157.7665 61.7151 144.9275 61.6551 144.9275 61.6551 157.7665 58.5951 157.7665"></polygon>
                <path d="M63.95,45.4016 L63.889,45.4016 L62.389,53.1396 L65.45,53.1396 L63.95,45.4016 Z M62.66,39.2516 L65.21,39.2516 L69.98,60.6106 L66.92,60.6106 L66.02,56.0206 L61.849,56.0206 L60.95,60.6106 L57.889,60.6106 L62.66,39.2516 Z" id="Fill-22" fill="#FEFEFE"></path>
                <path d="M63.95,110.3391 L63.889,110.3391 L62.389,118.0791 L65.45,118.0791 L63.95,110.3391 Z M62.66,104.1891 L65.21,104.1891 L69.98,125.5481 L66.92,125.5481 L66.02,120.9581 L61.849,120.9581 L60.95,125.5481 L57.889,125.5481 L62.66,104.1891 Z" id="Fill-24" fill="#FEFEFE"></path>
                <polyline id="Stroke-26" stroke="#FEFEFE" points="0.4998 0.9104 0.4998 163.5004 84.9308 163.5004 84.9308 1.3954 0.4998 1.3954"></polyline>
            </g>
        </g>
    </g>
</svg>